Coordinates
version=1
nRows=9
nColumns=24
inDegrees=yes

Units are S.I. units (second, meters, Newtons, ...)
If the header above contains a line with 'inDegrees', this indicates whether rotational values are in degrees (yes) or radians (no).

endheader
time	pelvis_tilt	pelvis_list	pelvis_rotation	pelvis_tx	pelvis_ty	pelvis_tz	lumbar_extension	lumbar_bending	lumbar_rotation	arm_flex_r	arm_add_r	arm_rot_r	elbow_flex_r	pro_sup_r	wrist_flex_r	wrist_dev_r	arm_flex_l	arm_add_l	arm_rot_l	elbow_flex_l	pro_sup_l	wrist_flex_l	wrist_dev_l
      0.00000000	    -14.03258411	      0.56856417	      2.79500024	      1.08080358	      0.86730973	      0.13049801	     -7.70207751	     -0.46389686	      1.60264305	     10.46393248	    -17.60553992	     37.78583428	     26.72270973	     35.49014742	    -20.60372737	    -24.99999983	     12.29898361	     -5.87469420	     24.19613838	     20.54891870	     50.40973532	    -20.46545457	    -14.02547089
      0.00400000	    -14.02517380	      0.56246862	      2.80592004	      1.08090040	      0.86723383	      0.13064716	     -7.69487228	     -0.47234396	      1.61155908	     10.47533503	    -17.60156610	     37.78653698	     26.72626119	     35.49006057	    -20.60380757	    -24.99999983	     12.29637510	     -5.86400195	     24.19721948	     20.55133590	     50.40959125	    -20.46559199	    -14.02519237
      0.00800000	    -14.02387310	      0.56868352	      2.82271861	      1.08091841	      0.86730192	      0.13066814	     -7.69302661	     -0.46857517	      1.62888541	     10.48507998	    -17.60726704	     37.78605910	     26.72505301	     35.48974420	    -20.60408487	    -24.99999983	     12.28835878	     -5.87092913	     24.19623691	     20.55013407	     50.40995555	    -20.46517704	    -14.02511456
      0.01200000	    -14.02354724	      0.56829537	      2.82525973	      1.08101137	      0.86725309	      0.13076386	     -7.69242959	     -0.46970308	      1.63070504	     10.48774042	    -17.60809688	     37.78590965	     26.72509574	     35.48974426	    -20.60412616	    -24.99999983	     12.28829634	     -5.86887516	     24.19647075	     20.55107327	     50.41009804	    -20.46502158	    -14.02512369
      0.01600000	    -14.01516537	      0.55665094	      2.84315612	      1.08110790	      0.86711705	      0.13096306	     -7.68487928	     -0.48482042	      1.64545858	     10.49672977	    -17.59722190	     37.78850401	     26.72814023	     35.49022426	    -20.60419299	    -24.99999983	     12.28898367	     -5.84657862	     24.19860539	     20.56005839	     50.41062835	    -20.46492448	    -14.02530691
      0.02000000	    -14.01777138	      0.55616627	      2.86790214	      1.08122229	      0.86704728	      0.13113059	     -7.68741101	     -0.48914077	      1.66885317	     10.49830183	    -17.59355567	     37.79127161	     26.72681094	     35.49049931	    -20.60454998	    -24.99999983	     12.28861383	     -5.83956273	     24.19864112	     20.56514342	     50.41079140	    -20.46577512	    -14.02577954
      0.02400000	    -14.02179604	      0.54355167	      2.93195067	      1.08121116	      0.86708531	      0.13138756	     -7.69262310	     -0.51094491	      1.72909598	     10.43465560	    -17.57734381	     37.80850193	     26.70145593	     35.49168447	    -20.60862171	    -24.99999983	     12.35288332	     -5.82599198	     24.19568461	     20.60463461	     50.41374081	    -20.47156481	    -14.03142485
      0.02800000	    -14.01876070	      0.53760149	      2.94407344	      1.08128005	      0.86706340	      0.13150799	     -7.68972294	     -0.51908273	      1.73948145	     10.44373459	    -17.58123764	     37.80702702	     26.70214694	     35.49217380	    -20.60914054	    -24.99999983	     12.34830473	     -5.82814122	     24.19604332	     20.60245111	     50.41384709	    -20.47238764	    -14.03146820
      0.03200000	    -14.01822758	      0.53754727	      2.94751181	      1.08134258	      0.86703630	      0.13160923	     -7.68899509	     -0.52002553	      1.74220765	     10.44663642	    -17.58199650	     37.80671514	     26.70257133	     35.49231538	    -20.60920103	    -24.99999983	     12.34746172	     -5.82740675	     24.19626577	     20.60232993	     50.41391923	    -20.47250257	    -14.03149972
